<svg width="48" height="48" viewBox="0 0 48 48" fill="none" xmlns="http://www.w3.org/2000/svg">
<rect width="48" height="48" rx="8" fill="#121212"/>
<path d="M28.25 14.0938H35.3125V27.75C35.3125 29.1042 35.099 30.3854 34.6719 31.5938C34.2552 32.7917 33.5938 33.8438 32.6875 34.75C31.7917 35.6458 30.849 36.276 29.8594 36.6406C28.4844 37.151 26.8333 37.4062 24.9062 37.4062C23.7917 37.4062 22.5729 37.3281 21.25 37.1719C19.9375 37.0156 18.8385 36.7083 17.9531 36.25C17.0677 35.7812 16.2552 35.1198 15.5156 34.2656C14.7865 33.4115 14.2865 32.5312 14.0156 31.625C13.5781 30.1667 13.3594 28.875 13.3594 27.75V14.0938H20.4219V28.0781C20.4219 29.3281 20.7656 30.3073 21.4531 31.0156C22.151 31.7135 23.1146 32.0625 24.3438 32.0625C25.5625 32.0625 26.5156 31.7188 27.2031 31.0312C27.901 30.3333 28.25 29.349 28.25 28.0781V14.0938Z" fill="white"/>
</svg>
