<svg width="36" height="36" viewBox="0 0 36 36" fill="none" xmlns="http://www.w3.org/2000/svg">
<mask id="path-1-inside-1_48_421" fill="white">
<path fill-rule="evenodd" clip-rule="evenodd" d="M18.0001 36C27.9412 35.9999 36 27.9411 36 18C36 8.05891 27.9412 5.7725e-05 18.0001 0V36ZM0.000106812 18.0627V17.9373C3.62396e-05 17.9582 0 17.9791 0 18C0 18.0209 3.62396e-05 18.0418 0.000106812 18.0627Z"/>
</mask>
<path fill-rule="evenodd" clip-rule="evenodd" d="M18.0001 36C27.9412 35.9999 36 27.9411 36 18C36 8.05891 27.9412 5.7725e-05 18.0001 0V36ZM0.000106812 18.0627V17.9373C3.62396e-05 17.9582 0 17.9791 0 18C0 18.0209 3.62396e-05 18.0418 0.000106812 18.0627Z" fill="#FBFBFB"/>
<path d="M18.0001 36H14.0001V40L18.0001 40L18.0001 36ZM18.0001 0L18.0001 -4L14.0001 -4.00002V0H18.0001ZM0.000106812 18.0627L-3.99987 18.0762L4.00011 18.0627H0.000106812ZM0.000106812 17.9373H4.00011L-3.99987 17.9238L0.000106812 17.9373ZM32 18C32 25.732 25.732 32 18.0001 32L18.0001 40C30.1503 39.9999 40 30.1502 40 18H32ZM18.0001 4C25.732 4.00004 32 10.268 32 18H40C40 5.84978 30.1503 -3.99993 18.0001 -4L18.0001 4ZM14.0001 0V36H22.0001V0H14.0001ZM4.00011 18.0627V17.9373H-3.99989V18.0627H4.00011ZM4 18C4 17.9837 4.00003 17.9673 4.00008 17.9508L-3.99987 17.9238C-3.99996 17.9491 -4 17.9745 -4 18H4ZM4.00008 18.0492C4.00003 18.0327 4 18.0163 4 18H-4C-4 18.0255 -3.99996 18.0509 -3.99987 18.0762L4.00008 18.0492Z" fill="#FBFBFB" mask="url(#path-1-inside-1_48_421)"/>
<circle cx="18" cy="18" r="16" stroke="#FBFBFB" stroke-width="4"/>
</svg>
