<svg xmlns="http://www.w3.org/2000/svg" width="36" height="36" fill="none"><mask id="a" fill="#fff"><path fill-rule="evenodd" d="M18 36c9.941 0 18-8.059 18-18S27.941 0 18 0v36ZM0 18.063v-.126a18.569 18.569 0 0 0 0 .126Z" clip-rule="evenodd"/></mask><path fill="#FBFBFB" fill-rule="evenodd" d="M18 36c9.941 0 18-8.059 18-18S27.941 0 18 0v36ZM0 18.063v-.126a18.569 18.569 0 0 0 0 .126Z" clip-rule="evenodd"/><path fill="#FBFBFB" d="M18 36h-4v4h4v-4Zm0-36v-4h-4v4h4ZM0 18.063l-4 .013 8-.013H0Zm0-.126h4l-8-.013 4 .013ZM32 18c0 7.732-6.268 14-14 14v8c12.15 0 22-9.85 22-22h-8ZM18 4c7.732 0 14 6.268 14 14h8C40 5.85 30.15-4 18-4v8Zm-4-4v36h8V0h-8ZM4 18.063v-.126h-8v.126h8ZM4 18v-.05l-8-.026V18h8Zm0 .05V18h-8v.076l8-.027Z" mask="url(#a)"/><circle cx="18" cy="18" r="16" stroke="#FBFBFB" stroke-width="4"/></svg>